<?xml version="1.0" standalone="no"?><!DOCTYPE svg PUBLIC "-//W3C//DTD SVG 1.1//EN" "http://www.w3.org/Graphics/SVG/1.1/DTD/svg11.dtd"><svg t="1524556680585" class="icon" style="" viewBox="0 0 1024 1024" version="1.1" xmlns="http://www.w3.org/2000/svg" p-id="2780" xmlns:xlink="http://www.w3.org/1999/xlink" width="200" height="200"><defs><style type="text/css"></style></defs><path d="M504.371937 16.445242c-277.781916 0-502.987991 225.187952-502.987991 502.973895 0 277.784936 225.206075 502.977923 502.987991 502.977923 277.782923 0 502.972888-225.192986 502.972888-502.977923C1007.343818 241.633194 782.15486 16.445242 504.371937 16.445242zM700.443161 562.04406 546.999881 562.04406l0 153.448315c0 18.833543-15.278277 34.104772-34.120882 34.104772-18.833543 0-34.077586-15.271229-34.077586-34.104772L478.801413 562.04406 325.334975 562.04406c-18.826495 0-34.103765-15.263174-34.103765-34.101751 0-18.824481 15.27727-34.096717 34.103765-34.096717l153.466438 0L478.801413 340.39325c0-18.826495 15.244044-34.092689 34.077586-34.092689 18.841598 0 34.120882 15.266195 34.120882 34.092689L546.999881 493.846599l153.44328 0c18.833543 0 34.101751 15.271229 34.101751 34.096717C734.544912 546.780886 719.276704 562.04406 700.443161 562.04406z" p-id="2781" fill="#243B6B"></path></svg>