<?xml version="1.0" standalone="no"?><!DOCTYPE svg PUBLIC "-//W3C//DTD SVG 1.1//EN" "http://www.w3.org/Graphics/SVG/1.1/DTD/svg11.dtd"><svg class="icon" width="200px" height="200.00px" viewBox="0 0 1024 1024" version="1.1" xmlns="http://www.w3.org/2000/svg"><path fill="#ffffff" d="M832 64l-160.002 0c-0.014 0-0.026 0.002-0.04 0.002C657.348 44.584 634.118 32 608 32l-40.78 0C555.932 12.484 534.962 0 512 0s-43.932 12.484-55.22 32L416 32c-26.118 0-49.348 12.584-63.958 32.002-0.014 0-0.028-0.002-0.042-0.002L192 64c-44.112 0-80 35.888-80 80l0 800c0 44.112 35.888 80 80 80l640 0c44.112 0 80-35.888 80-80L912 144C912 99.888 876.112 64 832 64zM368 112c0-26.466 21.534-48 48-48l50.94 0c6.77 0 12.808-4.262 15.076-10.64C486.556 40.584 498.606 32 512 32s25.444 8.584 29.984 21.36c2.268 6.378 8.306 10.64 15.076 10.64L608 64c26.466 0 48 21.534 48 48l0 48L368 160 368 112zM880 944c0 26.466-21.534 48-48 48L192 992c-26.466 0-48-21.534-48-48L144 144c0-26.466 21.534-48 48-48l145.61 0c-1.054 5.172-1.61 10.522-1.61 16l0 64c0 8.836 7.164 16 16 16l320 0c8.836 0 16-7.164 16-16L688 112c0-5.478-0.556-10.828-1.61-16L832 96c26.466 0 48 21.534 48 48L880 944zM832 128l-96 0c-8.836 0-16 7.164-16 16s7.164 16 16 16l80 0 0 768L208 928 208 160l80 0c8.836 0 16-7.164 16-16s-7.164-16-16-16L192 128c-8.836 0-16 7.164-16 16l0 800c0 8.836 7.164 16 16 16l640 0c8.836 0 16-7.164 16-16L848 144C848 135.164 840.836 128 832 128zM512 64c-4.22 0-8.34 1.7-11.32 4.68-2.98 2.98-4.68 7.1-4.68 11.32 0 4.2 1.7 8.34 4.68 11.32 2.98 2.98 7.1 4.68 11.32 4.68 4.2 0 8.34-1.7 11.32-4.68 2.98-2.98 4.68-7.1 4.68-11.32 0-4.22-1.7-8.34-4.68-11.32C520.34 65.698 516.2 64 512 64zM260.686 372.686c-6.25 6.248-6.25 16.378 0 22.626l48 48c3.124 3.124 7.218 4.686 11.314 4.686s8.19-1.562 11.314-4.686l80-80c6.25-6.248 6.25-16.378 0-22.626-6.248-6.248-16.378-6.248-22.626 0L320 409.372l-36.686-36.686C277.066 366.438 266.934 366.438 260.686 372.686zM411.314 516.686c-6.248-6.248-16.378-6.248-22.626 0L320 585.372l-36.686-36.686c-6.248-6.248-16.378-6.248-22.626 0-6.25 6.248-6.25 16.378 0 22.626l48 48c3.124 3.124 7.218 4.686 11.314 4.686s8.19-1.562 11.314-4.686l80-80C417.562 533.066 417.562 522.934 411.314 516.686zM388.686 692.686 320 761.372l-36.686-36.686c-6.248-6.248-16.378-6.248-22.626 0-6.25 6.248-6.25 16.378 0 22.626l48 48c3.124 3.124 7.218 4.686 11.314 4.686s8.19-1.562 11.314-4.686l80-80c6.25-6.248 6.25-16.378 0-22.626C405.066 686.438 394.934 686.438 388.686 692.686zM480 400l272 0c8.836 0 16-7.164 16-16s-7.164-16-16-16L480 368c-8.836 0-16 7.164-16 16S471.164 400 480 400zM480 576l272 0c8.836 0 16-7.164 16-16s-7.164-16-16-16L480 544c-8.836 0-16 7.164-16 16S471.164 576 480 576zM480 752l272 0c8.836 0 16-7.164 16-16s-7.164-16-16-16L480 720c-8.836 0-16 7.164-16 16S471.164 752 480 752z" /></svg>