<?xml version="1.0" standalone="no"?><!DOCTYPE svg PUBLIC "-//W3C//DTD SVG 1.1//EN" "http://www.w3.org/Graphics/SVG/1.1/DTD/svg11.dtd"><svg class="icon" width="200px" height="200.00px" viewBox="0 0 1024 1024" version="1.1" xmlns="http://www.w3.org/2000/svg"><path fill="#ffffff" d="M225.854934 210.432687l-93.071745 0c-2.49789 0-4.523013 2.025123-4.523013 4.523013l0 93.071745c0 2.49789 2.025123 4.523013 4.523013 4.523013l93.071745 0c2.49789 0 4.523013-2.025123 4.523013-4.523013l0-93.071745C230.377948 212.45781 228.352825 210.432687 225.854934 210.432687zM868.248703 210.432687 302.545594 210.432687c-15.182794 0-27.491121 2.025123-27.491121 4.523013l0 93.071745c0 2.49789 12.308327 4.523013 27.491121 4.523013L868.248703 312.550459c15.182794 0 27.491121-2.025123 27.491121-4.523013l0-93.071745C895.739824 212.45781 883.431497 210.432687 868.248703 210.432687zM225.854934 461.738269l-93.071745 0c-2.49789 0-4.523013 2.025123-4.523013 4.523013l0 93.071745c0 2.49789 2.025123 4.523013 4.523013 4.523013l93.071745 0c2.49789 0 4.523013-2.025123 4.523013-4.523013l0-93.071745C230.377948 463.763392 228.352825 461.738269 225.854934 461.738269zM868.248703 461.738269 302.545594 461.738269c-15.182794 0-27.491121 2.025123-27.491121 4.523013l0 93.071745c0 2.49789 12.308327 4.523013 27.491121 4.523013L868.248703 563.856042c15.182794 0 27.491121-2.025123 27.491121-4.523013l0-93.071745C895.739824 463.763392 883.431497 461.738269 868.248703 461.738269zM225.854934 711.448518l-93.071745 0c-2.49789 0-4.523013 2.025123-4.523013 4.523013l0 93.071745c0 2.49789 2.025123 4.523013 4.523013 4.523013l93.071745 0c2.49789 0 4.523013-2.025123 4.523013-4.523013l0-93.071745C230.377948 713.473641 228.352825 711.448518 225.854934 711.448518zM868.248703 711.448518 302.545594 711.448518c-15.182794 0-27.491121 2.025123-27.491121 4.523013l0 93.071745c0 2.49789 12.308327 4.523013 27.491121 4.523013L868.248703 813.56629c15.182794 0 27.491121-2.025123 27.491121-4.523013l0-93.071745C895.739824 713.473641 883.431497 711.448518 868.248703 711.448518z" /></svg>