<?xml version="1.0" standalone="no"?><!DOCTYPE svg PUBLIC "-//W3C//DTD SVG 1.1//EN" "http://www.w3.org/Graphics/SVG/1.1/DTD/svg11.dtd"><svg t="1517839794608" class="icon" style="" viewBox="0 0 1024 1024" version="1.1" xmlns="http://www.w3.org/2000/svg" p-id="1594" xmlns:xlink="http://www.w3.org/1999/xlink" width="200" height="200"><defs></defs><path d="M511.999998 0.090047c-282.740832 0-511.954977 229.203912-511.954977 511.954977 0 282.740832 229.214145 511.954977 511.954977 511.954977 282.751064 0 511.954977-229.214145 511.954977-511.954977C1023.954975 229.294982 794.750039 0.090047 511.999998 0.090047zM773.35676 419.16072 483.091903 709.415343c-12.478645 12.498087-32.751456 12.498087-45.249543 0L250.59412 522.157894c-12.488878-12.498087-12.488878-32.751456 0-45.249543 12.498087-12.498087 32.751456-12.498087 45.268985 0l164.605562 164.631143 267.619108-267.619108c12.517529-12.498087 32.761689-12.498087 45.268985 0C785.835405 386.40824 785.835405 406.662632 773.35676 419.16072z" p-id="1595" fill="#93FFDF"></path></svg>