<?xml version="1.0" standalone="no"?><!DOCTYPE svg PUBLIC "-//W3C//DTD SVG 1.1//EN" "http://www.w3.org/Graphics/SVG/1.1/DTD/svg11.dtd"><svg class="icon" width="200px" height="199.80px" viewBox="0 0 1025 1024" version="1.1" xmlns="http://www.w3.org/2000/svg"><path fill="#ffffff" d="M981.334005 469.334005l-682.666667 0c-23.552081 0-42.665995 19.113915-42.665995 42.665995 0 23.552081 19.113915 42.665995 42.665995 42.665995l682.666667 0c23.466163 0 42.665995-19.113915 42.665995-42.665995C1024 488.447919 1004.800168 469.334005 981.334005 469.334005zM298.667338 213.332662l682.666667 0c23.466163 0 42.665995-19.113915 42.665995-42.665995s-19.199832-42.665995-42.665995-42.665995l-682.666667 0c-23.552081 0-42.665995 19.113915-42.665995 42.665995S275.115257 213.332662 298.667338 213.332662zM981.334005 810.667338l-682.666667 0c-23.552081 0-42.665995 19.199832-42.665995 42.665995s19.113915 42.665995 42.665995 42.665995l682.666667 0c23.466163 0 42.665995-19.199832 42.665995-42.665995S1004.800168 810.667338 981.334005 810.667338zM42.665995 170.666667m-42.665995 0a15.891 15.891 0 1 0 85.331991 0 15.891 15.891 0 1 0-85.331991 0ZM42.665995 512m-42.665995 0a15.891 15.891 0 1 0 85.331991 0 15.891 15.891 0 1 0-85.331991 0ZM42.665995 853.333333m-42.665995 0a15.891 15.891 0 1 0 85.331991 0 15.891 15.891 0 1 0-85.331991 0Z" /></svg>